<svg xmlns="http://www.w3.org/2000/svg" width="41" height="41" fill="none"><path fill="white" d="M37.53 16.87a9.96 9.96 0 0 0-.85-8.18 10.08 10.08 0 0 0-10.86-4.84A9.96 9.96 0 0 0 18.31.5a10.08 10.08 0 0 0-9.62 6.98 9.97 9.97 0 0 0-6.66 4.83 10.08 10.08 0 0 0 1.24 11.82 9.96 9.96 0 0 0 .85 8.18 10.08 10.08 0 0 0 10.86 4.84 9.97 9.97 0 0 0 7.51 3.35 10.08 10.08 0 0 0 9.62-6.98 9.97 9.97 0 0 0 6.67-4.84 10.08 10.08 0 0 0-1.25-11.8ZM22.5 37.88a7.47 7.47 0 0 1-4.8-1.73l.24-.13 7.96-4.6a1.3 1.3 0 0 0 .65-1.14V19.05L29.92 21a.12.12 0 0 1 .07.09v9.3a7.5 7.5 0 0 1-7.5 7.5ZM6.4 31.01a7.47 7.47 0 0 1-.9-5.03l.23.14 7.97 4.6a1.3 1.3 0 0 0 1.3 0l9.73-5.61V29a.12.12 0 0 1-.05.1l-8.05 4.65A7.5 7.5 0 0 1 6.4 31.01ZM4.3 13.6a7.47 7.47 0 0 1 3.9-3.28v9.49a1.3 1.3 0 0 0 .65 1.13l9.72 5.61-3.36 1.95a.12.12 0 0 1-.12 0l-8.05-4.64A7.5 7.5 0 0 1 4.3 13.62Zm27.66 6.45-9.73-5.62 3.37-1.94a.12.12 0 0 1 .11-.01l8.05 4.65a7.5 7.5 0 0 1-1.16 13.52V21.2a1.3 1.3 0 0 0-.65-1.13ZM35.3 15l-.24-.14-7.97-4.6a1.3 1.3 0 0 0-1.3 0l-9.73 5.62v-3.9a.12.12 0 0 1 .05-.1l8.05-4.64A7.5 7.5 0 0 1 35.3 15Zm-21.07 6.93L10.88 20a.12.12 0 0 1-.07-.1v-9.3a7.5 7.5 0 0 1 12.3-5.75l-.24.13-7.97 4.6a1.3 1.3 0 0 0-.65 1.14v11.22ZM16.07 18l4.33-2.5 4.33 2.5v5l-4.33 2.5-4.33-2.5v-5Z"/></svg>